<svg xmlns="http://www.w3.org/2000/svg" viewBox="0 0 800 500" role="img" aria-labelledby="ot od"><title id="ot">Oil and gas operations</title><desc id="od">Sector illustration for Bweza Pharmacy corporate medical supply services.</desc><defs><linearGradient id="og" x1="0" y1="0" x2="1" y2="1"><stop stop-color="#e9f8ef"/><stop offset="1" stop-color="#fff1f9"/></linearGradient><filter id="os"><feDropShadow dx="0" dy="10" stdDeviation="12" flood-color="#06351f" flood-opacity=".14"/></filter></defs><rect width="800" height="500" rx="36" fill="url(#og)"/><circle cx="690" cy="90" r="105" fill="#d6007f" opacity=".08"/><circle cx="100" cy="430" r="145" fill="#07854b" opacity=".08"/><g filter="url(#os)"><path d="M210 402l96-310h82l96 310M268 218h158M242 300h210M306 92l82 310M388 92l-82 310" fill="none" stroke="#087f49" stroke-width="18" stroke-linejoin="round"/><rect x="118" y="370" width="560" height="42" rx="18" fill="#31594a"/><path d="M104 348h168v22H104zM514 348h182v22H514z" fill="#d6007f"/><rect x="520" y="192" width="154" height="130" rx="24" fill="#fff"/><rect x="570" y="172" width="54" height="28" rx="9" fill="#d6007f"/><rect x="578" y="224" width="38" height="66" rx="7" fill="#087f49"/><rect x="565" y="237" width="64" height="40" rx="7" fill="#087f49"/></g><rect x="34" y="34" width="110" height="34" rx="17" fill="#087f49"/><text x="89" y="57" text-anchor="middle" font-family="Arial,sans-serif" font-size="15" font-weight="700" fill="#fff">BWEZA B2B</text></svg>